HIERARCHY
ROOT Hips
{
  OFFSET -245.048 94.4831 -215.361
  CHANNELS 6 Xposition Yposition Zposition Zrotation Xrotation Yrotation
  JOINT ToSpine
  {
    OFFSET -0.0105055 1.38907 -7.13956
    CHANNELS 3 Zrotation Xrotation Yrotation
    JOINT Spine
    {
      OFFSET 0.0105055 10 1
      CHANNELS 3 Zrotation Xrotation Yrotation
      JOINT Spine1
      {
        OFFSET 0 12 1.60637
        CHANNELS 3 Zrotation Xrotation Yrotation
        JOINT Neck
        {
          OFFSET 0 27 2.26658
          CHANNELS 3 Zrotation Xrotation Yrotation
          JOINT Head
          {
            OFFSET 0 9 2.12705
            CHANNELS 3 Zrotation Xrotation Yrotation
            End Site
            {
              OFFSET 0 11 2
            }
          }
        }
        JOINT LeftShoulder
        {
          OFFSET 8 19.6109 2.86452
          CHANNELS 3 Zrotation Xrotation Yrotation
          JOINT LeftArm
          {
            OFFSET 12 1 0.681055
            CHANNELS 3 Zrotation Xrotation Yrotation
            JOINT LeftForeArm
            {
              OFFSET 19 0 -1.52608
              CHANNELS 3 Zrotation Xrotation Yrotation
              JOINT LeftHand
              {
                OFFSET 23 0 0
                CHANNELS 3 Zrotation Xrotation Yrotation
                End Site
                {
                  OFFSET 10 0 0
                }
              }
            }
          }
        }
        JOINT RightShoulder
        {
          OFFSET -8 19.6109 2.86452
          CHANNELS 3 Zrotation Xrotation Yrotation
          JOINT RightArm
          {
            OFFSET -12 1 0.681055
            CHANNELS 3 Zrotation Xrotation Yrotation
            JOINT RightForeArm
            {
              OFFSET -19 0 -1.52608
              CHANNELS 3 Zrotation Xrotation Yrotation
              JOINT RightHand
              {
                OFFSET -23 0 0
                CHANNELS 3 Zrotation Xrotation Yrotation
                End Site
                {
                  OFFSET -10 0 0
                }
              }
            }
          }
        }
      }
    }
  }
  JOINT LeftUpLeg
  {
    OFFSET 9 -7.17245 0
    CHANNELS 3 Zrotation Xrotation Yrotation
    JOINT LeftLeg
    {
      OFFSET 0 -44.1113 0
      CHANNELS 3 Zrotation Xrotation Yrotation
      JOINT LeftFoot
      {
        OFFSET 0 -36.1829 0
        CHANNELS 3 Zrotation Xrotation Yrotation
        JOINT LeftToeBase
        {
          OFFSET 0 -4.84184 13
          CHANNELS 3 Zrotation Xrotation Yrotation
          End Site
          {
            OFFSET 0 1 6
          }
        }
      }
    }
  }
  JOINT RightUpLeg
  {
    OFFSET -9 -7.17245 0
    CHANNELS 3 Zrotation Xrotation Yrotation
    JOINT RightLeg
    {
      OFFSET 0 -44.0551 0
      CHANNELS 3 Zrotation Xrotation Yrotation
      JOINT RightFoot
      {
        OFFSET 0 -36.1469 0
        CHANNELS 3 Zrotation Xrotation Yrotation
        JOINT RightToeBase
        {
          OFFSET 0 -4.92256 13
          CHANNELS 3 Zrotation Xrotation Yrotation
          End Site
          {
            OFFSET 0 1 6
          }
        }
      }
    }
  }
}
MOTION
Frames:	8
Frame Time:	0.0333333
-245.048 94.4831 -215.361 -5.72066 4.17185 -132.828 0 0 0 13.2803 -0.84921 7.39232 -20.4718 6.86067 11.4829 18.2395 -1.09598 -8.07055 -3.30944 1.43497 -1.86729 -20.0461 2.42512 -5.6235 -40.0431 7.71622 36.9561 23.1399 -14.5137 -120.388 -14.1929 0.894618 -7.17679 8.33107 2.46189 11.9576 37.713 8.92048 -3.13138 -10.2261 -6.42452 121.81 10.7964 0.418531 4.4269 0.50558 -27.331 5.03898 -1.77634 23.3442 -27.7619 6.68517 4.865 -0.284313 -0.659502 -3.26366 4.10052 1.65596 8.75886 -2.45024 5.08623e-009 45.6111 5.79906 -22.6532 -8.12723 -1.63053 4.81978 -18.3805 -3.87435 
-238.186 93.2151 -208.684 -4.72098 3.99982 -130.618 0 0 0 11.6079 4.85991 4.44693 -17.6129 1.85838 7.92319 12.6721 -8.10919 -5.58532 -1.29709 5.29193 -2.12526 -27.1702 3.12008 -5.84952 -33.4055 9.77753 22.0094 20.1546 -11.6819 -118.884 -12.9937 0.691403 -6.06573 13.6703 3.46153 13.1511 41.0278 10.058 -10.7553 -11.8852 -6.89443 119.699 9.90648 0.41695 4.80818 2.81659 -34.289 6.69876 -5.83704e-007 41.7154 -22.6152 17.0857 -1.46624 0.220264 0.491813 -12.6263 2.65995 4.37109 1.12731 -2.60365 2.8192e-008 47.9393 -1.78382 -27.8549 -9.23554 -2.29492 7.89016 -29.269 -1.68661 
-231.574 91.5523 -202.004 -8.83937 3.80364 -127.869 0 0 0 6.04042 10.2657 1.58253 -13.0407 0.725291 4.26977 7.502 -11.2676 -2.82119 0.371115 6.7584 -1.2828 -30.0741 3.74178 -6.82774 -29.2648 9.95376 3.90665 20.1585 -11.2418 -117.97 -12.7608 0.692423 -6.18629 13.7017 3.04722 11.1599 49.3737 11.2086 -15.2626 -16.0569 -6.07168 110.178 7.09525 0.378067 6.09243 2.2008 -34.6948 7.04001 -3.71443e-008 62.1104 -13.6144 18.1403 -16.9215 2.72064 0.235896 -5.60495 0.682575 1.20548 -1.77902 -3.55695 -1.36175e-007 51.1496 -3.50125 -31.9437 -15.9865 -4.60298 6.79446 -28.3938 -7.66698 
-225.189 90.0523 -195.541 -11.3496 2.99657 -128.644 0 0 0 2.84436 12.9943 -0.552154 -12.1927 -1.47477 1.55786 7.81359 -8.7561 -0.0507575 -0.299062 4.6136 1.74315 -30.55 3.63011 -6.39268 -25.0084 7.1427 -15.0688 17.3012 -10.1548 -119.511 -12.5371 0.572037 -5.20412 15.0582 3.04895 10.3477 55.7395 9.52742 -21.6961 -17.2062 -2.71227 98.6881 3.51743 0.135047 4.39604 5.0339 -31.9713 11.1936 1.5208e-006 78.9242 -6.81165 21.4436 -20.5446 3.93071 0.243631 -7.38552 1.3669 -1.98964 -7.11191 -1.54978 -6.04908e-009 54.6732 -3.43732 -31.0343 -24.8475 -7.00032 5.09291 -19.8285 -5.30579 
-219.649 89.5637 -190.072 -9.67863 1.70539 -129.844 0 0 0 1.94834 8.67605 -2.39293 -11.4758 1.18104 -0.448875 7.11442 -12.3543 3.25097 1.48806 6.68062 3.97387 -30.3365 3.03899 -4.83445 -21.7999 1.61471 -35.2472 19.0072 -11.3378 -119.714 -12.6507 0.596414 -5.37652 14.6791 2.52982 8.18962 59.4546 4.51819 -30.4121 -25.6858 -3.05443 96.3219 8.53644 0.327273 4.383 9.89544 -26.9356 13.5199 6.62317e-006 88.988 -5.26619 25.2003 -16.2575 3.65736 1.04557 -15.6637 0.0859915 -1.9959 -16.9153 -0.411155 -6.69517e-008 57.65 -2.41148 -30.7627 -21.8937 -6.0915 4.42848 -17.0475 -6.12394 
-214.629 89.8465 -185.073 -11.4875 2.05028 -130.072 0 0 0 -2.39726 8.64191 -5.31207 -8.5212 1.31924 -4.47927 9.73601 -9.86993 6.85836 -1.01571 4.18094 8.80673 -21.9909 3.04433 -7.20856 -28.3582 -5.07292 -40.8974 15.4747 -9.65357 -121.204 -13.4238 1.02676 -8.70822 13.0271 2.11037 6.98886 63.0541 2.51119 -40.4727 -23.0647 -3.60793 98.4067 11.0606 0.492744 5.08583 10.7221 -14.0319 11.5829 -0.000497415 89.9628 -9.83595 29.1921 -13.0304 3.40691 0.889218 -13.9187 0.358163 -3.47894 -20.436 -0.554364 3.22635e-009 56.1654 -0.134237 -32.4535 -13.6263 -3.9829 4.24364 -16.3202 -7.20035 
-210.3 91.8663 -179.79 -13.3834 4.72999 -131.136 0 0 0 -3.60416 9.05627 -8.93377 -6.32658 1.74519 -8.82994 10.2211 -3.92523 11.101 -3.78357 1.48019 14.2891 -13.9844 2.65729 -9.14328 -26.2136 -9.63868 -39.9568 13.9758 -9.54139 -123.665 -12.2724 0.752975 -6.99529 8.48751 1.50435 5.89643 67.3965 4.45126 -47.2216 -21.6131 -4.27533 100.656 14.7301 0.765402 5.91636 10.1973 2.00948 8.13889 1.92275e-006 81.1625 -13.5983 26.2898 -5.19893 1.21492 1.36551 -16.7406 -2.47882 -3.49291 -17.8176 0.157991 5.83843e-009 45.985 4.47932 -31.3352 -2.59642 -0.728353 4.58361 -17.9956 -7.53494 
-205.758 94.8623 -174.214 -13.4865 5.67276 -133.654 0 0 0 -6.59085 6.61152 -11.2109 -2.02197 3.65567 -11.9742 8.04132 -0.542238 15.1059 -5.10035 2.4992 18.2598 -7.66662 1.89016 -8.85613 -25.5794 -8.63703 -38.1008 18.0602 -12.5331 -123.643 -13.0795 0.702635 -6.12341 5.58808 1.08406 4.583 68.1057 6.62971 -51.1037 -22.8076 -5.82972 103.579 15.5524 0.918965 6.72183 6.00485 12.9666 6.12229 -1.20128e-006 67.1291 -15.8553 19.6068 2.01786 -0.348704 1.00389 -17.647 2.20776 -3.1165 -14.0833 4.74982 -1.02607e-007 27.405 8.11453 -22.6968 11.9313 2.40292 3.93915 -14.8632 -7.18405 
